<?xml version="1.0" encoding="UTF-8"?>
<svg width="500px" height="500px" viewBox="0 0 500 500" version="1.1" xmlns="http://www.w3.org/2000/svg" xmlns:xlink="http://www.w3.org/1999/xlink">
    <title>DGC-Logo-Refresh</title>
    <g id="DGC-Logo-Refresh" stroke="none" stroke-width="1" fill="none" fill-rule="evenodd">
        <g id="Outline" transform="translate(29, 29)" fill="#FFFFFF" stroke="#454545" stroke-width="7">
            <path d="M288,0 C293.522847,-1.01453063e-15 298,4.4771525 298,10 L298,144 L432,144 C437.522847,144 442,148.477153 442,154 L442,288 C442,293.522847 437.522847,298 432,298 L298,298 L298,432 C298,437.522847 293.522847,442 288,442 L154,442 C148.477153,442 144,437.522847 144,432 L144,297.999 L10,298 C4.4771525,298 0,293.522847 0,288 L0,154 C0,148.477153 4.4771525,144 10,144 L144,143.999 L144,10 C144,4.4771525 148.477153,1.01453063e-15 154,0 L288,0 Z" id="Dpad-Background"></path>
        </g>
        <g id="Logo" transform="translate(47, 47)">
            <path d="M96.75,139 L129,171.25 L129,235.75 L96.75,268 L0,268 L0,139 L96.75,139 Z M81.009,177 L38,177 L38,230 L81.008,230 L91,220.008 L91,186.991 L81.009,177 Z" id="D" fill="#010101" fill-rule="nonzero"></path>
            <g id="G" transform="translate(139, 139)">
                <polygon id="Background-Polygon" stroke="#454545" fill="#454545" points="32.25 0 64.5 0 96.75 0 129 32.25 129 64.5 129 96.75 96.75 129 64.5 129 32.25 129 0 96.75 0 64.5 0 32.25"></polygon>
                <path d="M93.75,6 L123,35 L123,35.674 L48.5507029,35.6744186 L36.8372093,46.9659654 L36.8372093,80.135996 L48.5494724,91.4263566 L94.6725072,91.4263566 L94.6725072,74.7345023 L66.3450143,74.7345023 L66.3450143,58.2136223 L123,58.213 L123,93 L93.75,122 L35.25,122 L6,93 L6,35 L35.25,6 L93.75,6 Z" id="Combined-Shape" fill="#FFFFFF" fill-rule="nonzero"></path>
            </g>
            <path d="M407,139 L407,172.989158 L407,268 L310.25,268 L278,235.75 L278,171.25 L310.25,139 L407,139 Z M407,183 L373,183 L373,173 L331.205574,173 L319,185.332 L319,221.667 L331.207131,234 L373,234 L373,224 L407,224 L407,183 Z" id="C" fill="#898989" fill-rule="nonzero"></path>
            <path d="M261,7 L261,93.8505051 L232.850505,122 L174.149495,122 L146,93.8505051 L146,7 L261,7 Z M207.024922,25.4222912 C204.802019,24.3108396 202.339053,24.2056186 200.15395,24.9339863 C197.968847,25.662354 196.061607,27.2243104 194.950155,29.4472136 L173.186223,72.9750776 C172.561374,74.2247766 172.236068,75.6027941 172.236068,77 C172.236068,79.4852814 173.243427,81.7352814 174.872107,83.363961 C176.500787,84.9926407 178.750787,86 181.236068,86 L224.763932,86 C226.161138,86 227.539155,85.6746942 228.788854,85.0498447 C231.011758,83.9383931 232.573714,82.0311529 233.302082,79.8460499 C234.030449,77.6609468 233.925228,75.1979809 232.813777,72.9750776 L211.049845,29.4472136 C210.178971,27.705467 208.766669,26.2931645 207.024922,25.4222912 Z" id="Up" stroke="#454545" stroke-width="14" fill="#454545"></path>
            <path d="M261,285 L261,371.850505 L232.850505,400 L174.149495,400 L146,371.850505 L146,285 L261,285 Z M207.024922,303.422291 C204.802019,302.31084 202.339053,302.205619 200.15395,302.933986 C197.968847,303.662354 196.061607,305.22431 194.950155,307.447214 L173.186223,350.975078 C172.561374,352.224777 172.236068,353.602794 172.236068,355 C172.236068,357.485281 173.243427,359.735281 174.872107,361.363961 C176.500787,362.992641 178.750787,364 181.236068,364 L224.763932,364 C226.161138,364 227.539155,363.674694 228.788854,363.049845 C231.011758,361.938393 232.573714,360.031153 233.302082,357.84605 C234.030449,355.660947 233.925228,353.197981 232.813777,350.975078 L211.049845,307.447214 C210.178971,305.705467 208.766669,304.293165 207.024922,303.422291 Z" id="Down" stroke="#454545" stroke-width="14" fill="#454545" transform="translate(203.5, 342.5) scale(1, -1) translate(-203.5, -342.5)"></path>
        </g>
    </g>
</svg>