<?xml version="1.0" encoding="UTF-8"?>
<svg width="817px" height="714px" viewBox="0 0 817 714" version="1.1" xmlns="http://www.w3.org/2000/svg" xmlns:xlink="http://www.w3.org/1999/xlink">
    <title>vghf-logo</title>
    <g id="vghf-logo" stroke="none" stroke-width="1" fill="none" fill-rule="evenodd">
        <g id="vghf-log" fill-rule="nonzero">
            <g id="Group" transform="translate(0, 304)" fill="#000000">
                <path d="M0,2.53902722 L24.3684681,2.53902722 L39.3176369,71.2778996 C40.6670309,77.9957425 41.4078747,82.6241775 41.8576727,87.4113018 L42.4662229,87.4113018 C42.9160209,82.6241775 43.6568647,77.9957425 45.0062587,71.2778996 L59.9554275,2.53902722 L84.3238956,2.53902722 L56.22475,108.622758 L28.0991456,108.622758 L0,2.53902722 Z" id="Path"></path>
                <polygon id="Path" points="91.4412875 108.622758 91.4412875 2.53902722 114.460362 2.53902722 114.460362 108.622758"></polygon>
                <path d="M129.356613,2.53902722 L163.885224,2.53902722 C191.37582,2.53902722 208.282933,18.22281 208.282933,55.4354277 C208.282933,93.0976648 191.243526,108.622758 163.594178,108.622758 L129.356613,108.622758 L129.356613,2.53902722 Z M163.56772,91.7488066 C177.167495,91.7488066 184.20551,78.7627403 184.20551,55.4354277 C184.20551,28.9872275 177.617293,19.412979 163.726472,19.412979 L152.507981,19.412979 L152.507981,91.7223584 L163.56772,91.7223584 L163.56772,91.7488066 Z" id="Shape"></path>
                <polygon id="Path" points="280.568117 91.140498 280.568117 108.622758 218.839956 108.622758 218.839956 2.53902722 279.536228 2.53902722 279.536228 20.0212876 241.85903 20.0212876 241.85903 45.570249 277.287238 45.570249 277.287238 62.8938202 241.85903 62.8938202 241.85903 91.140498 280.568117 91.140498"></polygon>
                <path d="M286.283198,55.5941169 C286.283198,16.0011611 302.131962,0 328.590668,0 C354.890622,0 370.739387,15.9747129 370.739387,55.5941169 C370.739387,95.1870726 354.890622,111.188234 328.590668,111.188234 C302.131962,111.161786 286.283198,95.1870726 286.283198,55.5941169 Z M346.661964,55.5941169 C346.661964,26.7655786 340.073747,18.2492582 328.56421,18.2492582 C316.89592,18.2492582 310.175409,26.7655786 310.175409,55.5941169 C310.175409,84.2904141 316.89592,92.9389756 328.56421,92.9389756 C340.100205,92.9389756 346.661964,84.2639659 346.661964,55.5941169 Z" id="Shape"></path>
                <path d="M410.480363,54.5361889 C410.480363,16.8739517 426.038082,0 452.787834,0 C476.415458,0 489.565435,12.2455167 491.047122,33.3247323 L468.1868,37.6622371 C467.128452,24.5174816 462.656931,17.4822604 452.496788,17.4822604 C440.696205,17.4822604 434.557785,26.7391304 434.557785,54.5361889 C434.557785,83.8143465 440.378701,93.2299058 452.946586,93.2299058 C463.847573,93.2299058 469.086396,84.2639659 469.086396,69.7703522 L469.086396,67.0726358 L450.856348,67.0726358 L450.856348,49.7490646 L491.205875,49.7490646 L491.205875,108.622758 L474.32522,108.622758 L473.425624,92.330667 C469.694947,103.994323 460.566693,111.161786 446.966918,111.161786 C423.498046,111.161786 410.480363,93.8382144 410.480363,54.5361889 Z" id="Path"></path>
                <path d="M556.611795,83.9730357 L527.322008,83.9730357 L521.342341,108.622758 L498.032221,108.622758 L527.930558,2.53902722 L556.188456,2.53902722 L585.928042,108.622758 L562.617922,108.622758 L556.611795,83.9730357 Z M552.722366,67.3900142 L545.102258,36.0224487 C544.04391,31.2353245 543.012021,26.6068894 542.112425,20.9205264 L541.821379,20.9205264 C541.080535,26.6068894 540.022187,31.2353245 538.831545,36.0224487 L531.211438,67.3900142 L552.722366,67.3900142 L552.722366,67.3900142 Z" id="Shape"></path>
                <path d="M593.786277,2.53902722 L625.325055,2.53902722 L639.374627,62.4442007 C640.565269,67.8131854 641.306113,72.7589988 641.623617,76.7791253 L642.073415,76.7791253 C642.364461,72.7325506 643.131764,67.8131854 644.322405,62.4442007 L658.080933,2.53902722 L689.778462,2.53902722 L689.778462,108.622758 L669.140672,108.622758 L669.140672,45.7289382 C669.140672,39.4607147 669.299424,31.6849439 669.59047,25.4167204 L669.140672,25.4167204 C668.690874,29.4632951 667.95003,33.7743517 667.050434,38.4292349 L650.751871,108.649207 L632.36307,108.649207 L615.61471,38.4292349 C614.556361,33.6421107 613.683224,28.5640563 613.524472,25.5754096 L612.915922,25.5754096 C613.36572,31.5527029 613.36572,39.3284737 613.36572,45.7553864 L613.36572,108.649207 L593.786277,108.649207 L593.786277,2.53902722 L593.786277,2.53902722 Z" id="Path"></path>
                <polygon id="Path" points="766.746838 91.140498 766.746838 108.622758 705.018677 108.622758 705.018677 2.53902722 765.714948 2.53902722 765.714948 20.0212876 728.037751 20.0212876 728.037751 45.570249 763.465958 45.570249 763.465958 62.8938202 728.037751 62.8938202 728.037751 91.140498 766.746838 91.140498"></polygon>
                <polygon id="Path" points="85.4880787 258.05509 62.3102523 258.05509 62.3102523 212.908012 32.1208689 212.908012 32.1208689 258.028641 9.10179482 258.028641 9.10179482 151.94491 32.1208689 151.94491 32.1208689 195.134821 62.3102523 195.134821 62.3102523 151.94491 85.4880787 151.94491"></polygon>
                <polygon id="Path" points="100.675376 258.05509 100.675376 151.971359 123.69445 151.971359 123.69445 258.05509 100.675376 258.05509"></polygon>
                <path d="M130.65309,230.548961 L150.973376,221.583022 C154.413007,235.468327 160.551427,242.053929 171.293662,242.053929 C179.522319,242.053929 184.284886,237.134563 184.284886,229.808412 C184.284886,222.64095 181.453805,218.462134 172.616597,215.764417 L157.376383,210.977293 C142.268461,206.190169 135.256904,195.293511 135.256904,180.350277 C135.256904,160.937298 150.047321,149.432331 170.976157,149.432331 C190.105802,149.432331 203.705577,157.208102 208.044804,176.330151 L189.206206,185.74571 C186.216372,172.600955 179.204815,166.755902 170.076561,166.755902 C162.297702,166.755902 157.376383,171.252097 157.376383,177.969939 C157.376383,184.396852 161.265812,189.025287 169.626763,191.855244 L184.866978,196.933299 C200.715743,202.302284 207.145208,211.717843 207.145208,227.560315 C207.145208,246.841053 193.704186,260.594117 170.367607,260.594117 C148.909597,260.594117 135.600868,249.829699 130.65309,230.548961 Z" id="Path"></path>
                <polygon id="Path" points="285.8334 170.934718 260.27429 170.934718 260.27429 258.05509 237.096463 258.05509 237.096463 170.934718 211.537353 170.934718 211.537353 151.94491 285.8334 151.94491"></polygon>
                <path d="M287.976555,205 C287.976555,165.407044 303.82532,149.405883 330.284025,149.405883 C356.583979,149.405883 372.432744,165.380596 372.432744,205 C372.432744,244.592956 356.583979,260.594117 330.284025,260.594117 C303.82532,260.594117 287.976555,244.592956 287.976555,205 Z M348.355322,205 C348.355322,176.171462 341.767104,167.655141 330.257567,167.655141 C318.589277,167.655141 311.868766,176.171462 311.868766,205 C311.868766,233.696297 318.589277,242.344859 330.257567,242.344859 C341.793562,242.344859 348.355322,233.696297 348.355322,205 Z" id="Shape"></path>
                <path d="M418.285681,216.055348 L406.617392,216.055348 L406.617392,258.028641 L383.439566,258.028641 L383.439566,151.94491 L421.249056,151.94491 C445.90857,151.94491 456.677263,164.190427 456.677263,183.762095 C456.677263,197.6474 450.538844,207.512579 439.637857,211.850084 L458.767501,258.028641 L433.949235,258.028641 L418.285681,216.055348 Z M417.835883,200.979874 C427.996026,200.979874 432.335254,194.552961 432.335254,183.788543 C432.335254,173.341504 428.154778,167.946071 417.835883,167.946071 L406.617392,167.946071 L406.617392,200.979874 L417.835883,200.979874 Z" id="Shape"></path>
                <path d="M485.940592,219.784544 L456.94185,151.94491 L481.310319,151.94491 L495.201139,189.289769 C496.259487,192.886724 497.000331,196.166301 497.450129,200.054187 L497.899927,200.054187 C498.349725,196.166301 498.958275,192.886724 500.148917,189.289769 L513.748692,151.94491 L538.11716,151.94491 L509.277171,219.784544 L509.277171,258.028641 L485.967051,258.028641 L485.967051,219.784544 L485.940592,219.784544 Z" id="Path"></path>
                <polygon id="Path" points="32.1208689 319.150432 32.1208689 344.990324 67.3903239 344.990324 67.3903239 362.472584 32.1208689 362.472584 32.1208689 407.460973 9.10179482 407.460973 9.10179482 301.377242 69.7980661 301.377242 69.7980661 319.150432"></polygon>
                <path d="M74.3225048,354.405883 C74.3225048,314.812927 90.1712696,298.811766 116.629975,298.811766 C142.929929,298.811766 158.778694,314.786479 158.778694,354.405883 C158.778694,393.998839 142.929929,410 116.629975,410 C90.1712696,410 74.3225048,394.025287 74.3225048,354.405883 Z M134.72773,354.405883 C134.72773,325.577345 128.139513,317.061024 116.629975,317.061024 C104.961686,317.061024 98.2411749,325.577345 98.2411749,354.405883 C98.2411749,383.10218 104.961686,391.750802 116.629975,391.750802 C128.139513,391.77719 134.72773,383.10218 134.72773,354.405883 Z" id="Shape"></path>
                <path d="M191.746241,301.377242 L191.746241,374.903238 C191.746241,384.927106 197.117359,390.877951 206.536658,390.877951 C215.797205,390.877951 221.194781,384.900658 221.194781,374.903238 L221.194781,301.377242 L244.213855,301.377242 L244.213855,375.934718 C244.213855,396.855244 230.455328,410 206.536658,410 C182.459236,410 168.727167,396.855244 168.727167,375.934718 L168.727167,301.377242 L191.746241,301.377242 Z" id="Path"></path>
                <path d="M258.580933,301.377242 L283.848997,301.377242 L310.598748,356.65398 C312.980032,361.890724 314.64693,366.968778 315.837572,374.29493 L316.128618,374.29493 C315.969866,367.577087 315.837572,360.250935 315.837572,353.083473 L315.837572,301.377242 L337.057454,301.377242 L337.057454,407.460973 L313.747334,407.460973 L285.357143,349.486518 C282.658355,343.800155 281.017915,337.981551 279.986026,331.713327 L279.69498,331.713327 C279.853732,337.241001 279.986026,345.016772 279.986026,352.184234 L279.986026,407.460973 L258.607391,407.460973 L258.607391,301.377242 L258.580933,301.377242 Z" id="Path"></path>
                <path d="M352.165375,301.377242 L386.693986,301.377242 C414.21104,301.377242 431.091695,317.061024 431.091695,354.273642 C431.091695,391.935879 414.052288,407.460973 386.402941,407.460973 L352.165375,407.460973 L352.165375,301.377242 L352.165375,301.377242 Z M386.376482,390.587021 C399.976257,390.587021 407.014272,377.600955 407.014272,354.273642 C407.014272,327.825442 400.426055,318.251193 386.535234,318.251193 L375.316743,318.251193 L375.316743,390.560573 L386.376482,390.560573 L386.376482,390.587021 Z" id="Shape"></path>
                <path d="M489.486059,382.81125 L460.196271,382.81125 L454.216604,407.460973 L430.906484,407.460973 L460.804822,301.377242 L489.062719,301.377242 L518.802305,407.460973 L495.492185,407.460973 L489.486059,382.81125 Z M485.596629,366.228229 L477.976522,334.860663 C476.918173,330.073539 475.886284,325.445104 474.986688,319.758741 L474.695642,319.758741 C473.954798,325.445104 472.89645,330.073539 471.705808,334.860663 L464.085701,366.228229 L485.596629,366.228229 Z" id="Shape"></path>
                <polygon id="Path" points="583.890721 320.340601 558.331611 320.340601 558.331611 407.460973 535.153785 407.460973 535.153785 320.340601 509.594675 320.340601 509.594675 301.350793 583.890721 301.350793"></polygon>
                <polygon id="Path" points="591.008113 407.460973 591.008113 301.377242 614.027187 301.377242 614.027187 407.460973"></polygon>
                <path d="M625.034009,354.405883 C625.034009,314.812927 640.882774,298.811766 667.34148,298.811766 C693.641433,298.811766 709.490198,314.786479 709.490198,354.405883 C709.490198,393.998839 693.641433,410 667.34148,410 C640.882774,410 625.034009,394.025287 625.034009,354.405883 Z M685.412776,354.405883 C685.412776,325.577345 678.824558,317.061024 667.315021,317.061024 C655.646732,317.061024 648.92622,325.577345 648.92622,354.405883 C648.92622,383.10218 655.646732,391.750802 667.315021,391.750802 C678.851017,391.77719 685.412776,383.10218 685.412776,354.405883 Z" id="Shape"></path>
                <path d="M720.523478,301.377242 L745.791542,301.377242 L772.541294,356.65398 C774.922578,361.890724 776.589476,366.968778 777.780118,374.29493 L778.071164,374.29493 C777.912411,367.577087 777.780118,360.250935 777.780118,353.083473 L777.780118,301.377242 L799,301.377242 L799,407.460973 L775.68988,407.460973 L747.299689,349.486518 C744.600901,343.800155 742.960461,337.981551 741.928571,331.713327 L741.637526,331.713327 C741.796278,337.241001 741.928571,345.016772 741.928571,352.184234 L741.928571,407.460973 L720.549937,407.460973 L720.549937,301.377242 L720.523478,301.377242 Z" id="Path"></path>
            </g>
            <g id="Group" transform="translate(9, 0)">
                <rect id="Rectangle" fill="#6B7CE7" x="0" y="9.33672431" width="241.339313" height="241.326551"></rect>
                <polygon id="Path" fill="#EC6FBD" points="469.003437 9.33672431 329.659345 9.33672431 260.013749 130 329.659345 250.663276 469.003437 250.663276 538.675484 130"></polygon>
                <ellipse id="Oval" fill="#FFAA4D" cx="677.993125" cy="130" rx="130.006875" ry="130"></ellipse>
            </g>
        </g>
    </g>
</svg>